<?xml version="1.0" encoding="UTF-8" standalone="no"?><!DOCTYPE svg PUBLIC "-//W3C//DTD SVG 1.1//EN" "http://www.w3.org/Graphics/SVG/1.1/DTD/svg11.dtd"><svg width="100%" height="100%" viewBox="0 0 4267 3325" version="1.1" xmlns="http://www.w3.org/2000/svg" xmlns:xlink="http://www.w3.org/1999/xlink" xml:space="preserve" xmlns:serif="http://www.serif.com/" style="fill-rule:evenodd;clip-rule:evenodd;stroke-linejoin:round;stroke-miterlimit:2;"><path d="M1493.33,2396.78c-28.444,-0 -696.889,-14.222 -782.222,-426.667c-227.555,-14.222 -384,-56.889 -483.555,-156.444c-42.667,-42.667 -71.112,-99.556 -85.334,-128c-42.666,-28.445 -99.555,-71.111 -128,-170.667c-14.222,-71.111 -14.222,-156.444 -14.222,-184.889c-0,-71.111 28.444,-725.333 896,-1066.67c867.556,-327.111 1820.44,-199.111 2190.22,142.223c398.222,14.222 711.111,398.222 739.556,753.777c28.444,312.889 -156.445,696.889 -725.334,796.445c-199.111,241.778 -625.777,284.444 -1009.78,312.889c-227.556,28.444 -455.111,42.666 -568.889,99.555c-0,14.223 -14.222,28.445 -28.445,28.445Zm-640,-512c0,312.889 526.223,355.555 625.778,355.555c142.222,-71.111 355.556,-85.333 597.333,-113.777c355.556,-28.445 768,-71.112 924.445,-284.445c14.222,-14.222 28.444,-28.444 42.667,-28.444c426.666,-71.111 668.444,-327.111 640,-654.223c-28.445,-298.666 -284.445,-625.777 -625.778,-625.777c-14.222,-0 -42.667,-14.223 -56.889,-14.223c-298.667,-312.888 -1223.11,-440.888 -2048,-128c-782.222,298.667 -810.667,867.556 -810.667,938.667c0,28.445 0,99.556 14.222,142.222c14.223,71.111 42.667,71.111 56.889,71.111c14.223,0 42.667,14.223 56.889,14.223c0,14.222 14.222,28.444 14.222,56.889c0,-0 14.223,199.111 426.667,213.333c14.222,-71.111 42.667,-142.222 85.333,-184.889c113.778,-113.778 298.667,-99.556 497.778,-85.333c113.778,-0 227.556,14.222 312.889,-0c42.667,-14.223 71.111,14.222 85.333,56.889c0,42.666 -14.222,71.111 -56.888,85.333c-113.778,14.222 -227.556,14.222 -355.556,14.222c-156.444,-14.222 -327.111,-14.222 -398.222,56.889c-14.222,-0 -28.445,42.667 -28.445,113.778Z" style="fill-rule:nonzero;"/><path d="M2346.67,3114.83l-432.38,-154.166c-28.445,-0 -56.889,-28.445 -71.111,-56.889l-122.287,-222.556c-298.667,-28.444 -440.889,-184.889 -526.222,-270.222c-14.223,-14.222 -28.445,-28.444 -28.445,-42.667c-28.444,-28.444 -28.444,-71.111 0,-99.555c28.445,-28.445 71.111,-28.445 99.556,-0l42.666,42.666c85.334,85.334 199.112,227.556 483.556,227.556c28.444,0 56.889,28.444 71.111,56.889l122.287,222.555l290.158,154.167l-0,78.389c-14.223,-42.667 14.222,-71.111 56.888,-85.333c42.667,-14.223 71.112,14.222 85.334,56.889l-0,6.944c-0,14.222 -0,42.667 -14.222,56.889c-14.223,14.222 -42.667,28.444 -56.889,28.444Z" style="fill-rule:nonzero;"/><path d="M2915.56,3250.11c-440.889,0 -782.223,-184.889 -782.223,-426.667c0,-241.777 341.334,-426.666 782.223,-426.666c440.888,-0 782.222,184.889 782.222,426.666c-0,241.778 -341.334,426.667 -782.222,426.667Zm-0,-711.111c-384,0 -640,156.444 -640,284.444c-0,128 256,284.445 640,284.445c384,-0 640,-156.445 640,-284.445c-0,-128 -256,-284.444 -640,-284.444Z" style="fill-rule:nonzero;"/><path d="M3555.56,2681.22c-42.667,0 -71.112,-28.444 -71.112,-71.111c0,-42.667 28.445,-71.111 71.112,-71.111c284.444,-0 568.888,-99.556 568.888,-213.333c0,-85.334 -199.111,-128 -284.444,-142.223c-42.667,0 -71.111,-42.666 -71.111,-71.111c-0,-42.666 28.444,-71.111 71.111,-71.111c213.333,0 241.778,-113.778 256,-184.889c28.444,-284.444 -256,-711.111 -327.111,-739.555c-42.667,-0 -71.111,-28.445 -71.111,-71.111c-0,-42.667 28.444,-71.111 71.111,-71.111c184.889,-0 469.333,497.777 469.333,824.888c0,113.778 -28.444,199.112 -99.555,270.223l-42.667,42.666c85.333,42.667 156.444,113.778 156.444,213.334c14.223,241.777 -398.222,355.555 -696.888,355.555Zm-1493.33,-1564.44c-14.222,-0 -28.444,-0 -42.666,-14.222c-28.445,-14.223 -42.667,-56.889 -28.445,-99.556c14.222,-28.444 369.778,-597.333 1052.44,-597.333c42.666,-0 71.111,28.444 71.111,71.111c-0,42.666 -28.445,71.111 -71.111,71.111c-611.556,-0 -924.445,526.222 -938.667,540.444c-0,14.223 -14.222,28.445 -42.667,28.445Zm995.556,853.333c-85.334,0 -156.445,-28.444 -213.334,-99.555c-156.444,-170.667 -142.222,-526.223 -142.222,-540.445c0,-42.667 42.667,-71.111 71.111,-71.111c42.667,0 71.111,42.667 71.111,71.111c0,85.333 0,327.111 99.556,440.889c28.444,28.444 71.111,56.889 113.778,56.889c42.666,-0 71.111,28.444 71.111,71.111c-0,28.444 -28.445,71.111 -71.111,71.111Zm284.444,-568.889c-42.666,0 -71.111,-28.444 -71.111,-71.111c0,-213.333 -355.555,-213.333 -355.555,-213.333c-42.667,-0 -71.112,-28.445 -71.112,-71.111c0,-42.667 28.445,-71.111 71.112,-71.111c241.777,-0 497.777,113.777 497.777,355.555c0,28.445 -28.444,71.111 -71.111,71.111Z" style="fill-rule:nonzero;"/><path d="M2062.22,1827.89c-42.666,-0 -71.111,-28.445 -71.111,-71.111c0,-42.667 28.445,-71.111 71.111,-71.111c71.111,-0 213.334,-170.667 213.334,-355.556c-0,-42.667 28.444,-71.111 71.111,-71.111c42.666,0 71.111,28.444 71.111,71.111c-0,227.556 -184.889,497.778 -355.556,497.778Z" style="fill-rule:nonzero;"/><path d="M782.222,1116.78c-14.222,-0 -28.444,-0 -42.666,-14.222c-142.223,-85.334 -199.112,-213.334 -199.112,-298.667c-28.444,-142.222 56.889,-327.111 199.112,-455.111c28.444,-28.445 71.111,-28.445 99.555,-0c28.445,28.444 14.222,71.111 -14.222,99.555c-99.556,99.556 -156.445,241.778 -142.222,341.334c14.222,71.111 56.889,142.222 142.222,184.889c28.444,28.444 42.667,71.111 14.222,99.555c-14.222,28.445 -28.444,42.667 -56.889,42.667Z" style="fill-rule:nonzero;"/><path d="M1208.89,1116.78c-42.667,-0 -71.111,-42.667 -71.111,-71.111c-0,-28.445 28.444,-71.111 71.111,-71.111c341.333,-0 355.555,-497.778 355.555,-497.778c0,-42.667 28.445,-71.111 71.112,-71.111c42.666,-0 71.111,28.444 71.111,71.111c-0,156.444 -85.334,640 -497.778,640Z" style="fill-rule:nonzero;"/></svg>