<?xml version="1.0" encoding="UTF-8" standalone="no"?>
<!DOCTYPE svg PUBLIC "-//W3C//DTD SVG 1.1//EN" "http://www.w3.org/Graphics/SVG/1.1/DTD/svg11.dtd">
<svg width="100%" height="100%" viewBox="0 0 512 512" version="1.1" xmlns="http://www.w3.org/2000/svg" xmlns:xlink="http://www.w3.org/1999/xlink" xml:space="preserve" xmlns:serif="http://www.serif.com/" style="fill-rule:evenodd;clip-rule:evenodd;stroke-linejoin:round;stroke-miterlimit:2;">
    <g>
        <g transform="matrix(1,0,0,1,0.0010496,30.485)">
            <path d="M213.17,390.59C267.13,442.65 343.46,458.37 419.78,425.85L483.83,451.03L462.61,400.56C533.78,343.56 521.04,265.22 468.65,211.81C465.14,232.34 458.19,251.8 448.29,269.79C434.22,295.37 414.08,318.12 389.4,336.84C365.49,354.99 337.58,369.22 307.16,378.42C278.17,387.19 246.42,391.57 213.18,390.59L213.17,390.59ZM224.88,0.12L225.1,0.13C285.18,1.95 339.05,23.3 377.6,56.35C416.8,89.96 440.31,135.66 438.84,185.5L438.84,185.61C437.33,235.53 411.08,279.83 369.87,311.1C329.32,341.87 274.18,360.02 214.07,358.25C197.24,357.76 180.97,355.75 165.48,352.42C150.93,349.28 136.96,344.96 123.75,339.61L29.8,376.55L61.19,301.89C42.35,285.7 27.13,266.72 16.6,245.85C5.23,223.32 -0.71,198.58 0.07,172.76C1.57,122.85 27.82,78.54 69.03,47.27C109.58,16.5 164.73,-1.65 224.84,0.12L224.88,0.12ZM224.42,21.69L224.2,21.68C169.13,20.07 118.84,36.52 82.05,64.43C45.93,91.85 22.93,130.33 21.63,173.35C20.96,195.47 26.08,216.72 35.87,236.13C46.16,256.53 61.61,274.93 80.92,290.23L87.35,295.32L69.52,337.72L124.01,316.29L128.08,318.03C141.22,323.64 155.25,328.11 169.96,331.28C184.36,334.38 199.33,336.24 214.66,336.69C269.75,338.31 320.06,321.85 356.85,293.94C392.98,266.52 415.98,228.05 417.28,185.02L417.28,184.91C418.54,141.92 397.93,102.21 363.56,72.75C328.55,42.74 279.43,23.35 224.46,21.69L224.42,21.69Z"/>
        </g>
        <g transform="matrix(1,0,0,1,4.20239,28.9042)">
            <text x="99.615px" y="227.096px" style="font-family:'Arial-Black', 'Arial Black', sans-serif;font-weight:900;font-size:144px;">DE</text>
        </g>
    </g>
</svg>
