<?xml version="1.0" encoding="UTF-8" standalone="no"?>
<!DOCTYPE svg PUBLIC "-//W3C//DTD SVG 1.1//EN" "http://www.w3.org/Graphics/SVG/1.1/DTD/svg11.dtd">
<svg width="100%" height="100%" viewBox="0 0 281 341" version="1.1" xmlns="http://www.w3.org/2000/svg" xmlns:xlink="http://www.w3.org/1999/xlink" xml:space="preserve" xmlns:serif="http://www.serif.com/" style="fill-rule:evenodd;clip-rule:evenodd;stroke-linejoin:round;stroke-miterlimit:2;">
    <g id="Ebene-1" serif:id="Ebene 1">
        <g transform="matrix(1,0,0,1,0,-226.76)">
            <rect x="44.199" y="264.519" width="37.88" height="37.879" style="fill:rgb(39,40,146);"/>
        </g>
        <g transform="matrix(1,0,0,1,0,-75.242)">
            <rect x="44.199" y="188.76" width="37.88" height="37.879" style="fill:rgb(39,40,146);"/>
        </g>
        <g transform="matrix(1,0,0,1,0,76.274)">
            <rect x="44.199" y="113.002" width="37.88" height="37.879" style="fill:rgb(39,40,146);"/>
        </g>
        <g transform="matrix(1,0,0,1,0,-226.76)">
            <rect x="126.327" y="270.888" width="25.141" height="25.141" style="fill:rgb(39,40,146);"/>
        </g>
        <g transform="matrix(1,0,0,1,0,-75.242)">
            <rect x="126.327" y="195.129" width="25.141" height="25.141" style="fill:rgb(39,40,146);"/>
        </g>
        <g transform="matrix(1,0,0,1,0,76.274)">
            <rect x="126.327" y="119.371" width="25.141" height="25.141" style="fill:rgb(39,40,146);"/>
        </g>
        <g transform="matrix(1,0,0,1,0,-226.758)">
            <rect x="167.39" y="274.071" width="18.774" height="18.773" style="fill:rgb(39,40,146);"/>
        </g>
        <g transform="matrix(1,0,0,1,0,-75.24)">
            <rect x="167.39" y="198.312" width="18.774" height="18.773" style="fill:rgb(39,40,146);"/>
        </g>
        <g transform="matrix(1,0,0,1,0,76.274)">
            <rect x="167.39" y="122.555" width="18.774" height="18.773" style="fill:rgb(39,40,146);"/>
        </g>
        <g transform="matrix(1,0,0,1,0,-226.76)">
            <rect x="86.323" y="268.765" width="29.387" height="29.387" style="fill:rgb(39,40,146);"/>
        </g>
        <g transform="matrix(1,0,0,1,0,-75.242)">
            <rect x="86.323" y="193.006" width="29.387" height="29.387" style="fill:rgb(39,40,146);"/>
        </g>
        <g transform="matrix(1,0,0,1,0,76.274)">
            <rect x="86.323" y="117.248" width="29.387" height="29.387" style="fill:rgb(39,40,146);"/>
        </g>
        <g transform="matrix(1,0,0,1,0,-226.759)">
            <rect x="208.455" y="277.256" width="12.404" height="12.404" style="fill:rgb(39,40,146);"/>
        </g>
        <g transform="matrix(1,0,0,1,0,-75.241)">
            <rect x="208.455" y="201.497" width="12.404" height="12.404" style="fill:rgb(39,40,146);"/>
        </g>
        <g transform="matrix(1,0,0,1,0,76.275)">
            <rect x="208.455" y="125.739" width="12.404" height="12.404" style="fill:rgb(39,40,146);"/>
        </g>
        <g transform="matrix(-1,0,0,1,429.312,-151.002)">
            <rect x="195.716" y="226.64" width="37.88" height="37.879" style="fill:rgb(71,192,189);"/>
        </g>
        <g transform="matrix(-1,0,0,1,429.312,0.514)">
            <rect x="195.716" y="150.882" width="37.88" height="37.879" style="fill:rgb(71,192,189);"/>
        </g>
        <g transform="matrix(-1,0,0,1,277.796,-151)">
            <rect x="126.328" y="233.008" width="25.14" height="25.141" style="fill:rgb(71,192,189);"/>
        </g>
        <g transform="matrix(-1,0,0,1,277.796,0.514)">
            <rect x="126.328" y="157.251" width="25.14" height="25.141" style="fill:rgb(71,192,189);"/>
        </g>
        <g transform="matrix(-1,0,0,1,202.034,-151.002)">
            <rect x="91.63" y="236.193" width="18.774" height="18.773" style="fill:rgb(71,192,189);"/>
        </g>
        <g transform="matrix(-1,0,0,1,202.034,0.514)">
            <rect x="91.63" y="160.435" width="18.774" height="18.773" style="fill:rgb(71,192,189);"/>
        </g>
        <g transform="matrix(-1,0,0,1,353.555,-151)">
            <rect x="162.084" y="230.885" width="29.387" height="29.387" style="fill:rgb(71,192,189);"/>
        </g>
        <g transform="matrix(-1,0,0,1,353.555,0.514)">
            <rect x="162.084" y="155.128" width="29.387" height="29.387" style="fill:rgb(71,192,189);"/>
        </g>
        <g transform="matrix(-1,0,0,1,126.278,-151.001)">
            <rect x="56.937" y="239.377" width="12.404" height="12.404" style="fill:rgb(71,192,189);"/>
        </g>
        <g transform="matrix(-1,0,0,1,126.278,0.515)">
            <rect x="56.937" y="163.619" width="12.404" height="12.404" style="fill:rgb(71,192,189);"/>
        </g>
        <g transform="matrix(1,0,0,1,189.029,259.559)">
            <path d="M0,41.883L0,-0.776L-9.307,-0.776L-9.307,7.458C-9.307,9.009 -9.248,12.291 -9.248,13.842C-10.739,12.052 -13.484,9.665 -18.674,9.665C-26.788,9.665 -32.576,16.049 -32.576,26.251C-32.576,36.275 -26.967,42.659 -18.555,42.659C-13.185,42.659 -10.083,39.854 -8.711,37.707C-8.77,38.721 -8.77,40.63 -8.77,41.883L0,41.883ZM-15.691,16.765C-11.455,16.765 -8.711,20.345 -8.711,25.894C-8.711,31.621 -11.217,35.439 -15.691,35.439C-20.166,35.439 -22.731,31.442 -22.731,26.072C-22.731,20.643 -20.166,16.765 -15.691,16.765M34.126,41.883C33.47,39.497 33.47,35.618 33.47,33.232L33.47,23.686C33.47,12.947 28.757,9.606 19.688,9.606C11.037,9.606 6.025,13.842 5.548,20.345L14.497,20.345C14.796,17.541 16.407,15.87 19.688,15.87C23.268,15.87 24.7,17.958 24.7,22.254C24.043,22.254 22.969,22.373 21.955,22.433C13.125,23.209 4.116,25.476 4.116,33.172C4.116,39.079 8.77,42.48 15.452,42.48C21.12,42.48 23.566,40.332 25.535,38.363C25.475,39.556 25.535,40.69 25.714,41.883L34.126,41.883ZM24.64,29.056C24.64,33.829 22.611,36.513 18.316,36.513C15.512,36.513 13.602,35.201 13.602,32.874C13.602,30.01 16.168,28.936 23.089,28.161L24.7,27.982C24.64,28.399 24.64,28.638 24.64,29.056M40.928,17.302L40.928,31.502C40.928,40.272 44.209,42.599 51.846,42.599C53.457,42.599 54.65,42.42 55.545,42.241L55.545,35.38C55.008,35.499 54.471,35.559 53.934,35.559C50.295,35.559 50.235,33.65 50.235,27.982L50.235,17.302L55.903,17.302L55.903,10.56L50.235,10.56L50.235,2.208L40.928,2.208L40.928,10.56L36.214,10.56L36.214,17.302L40.928,17.302Z" style="fill:rgb(71,192,189);fill-rule:nonzero;"/>
        </g>
        <g transform="matrix(1,0,0,1,35.6985,259.738)">
            <path d="M0,41.704L9.785,41.704L9.785,26.49L13.364,26.49C19.51,26.49 23.865,26.072 27.206,23.507C30.368,21.121 32.039,17.242 32.039,12.708C32.039,4.415 26.669,-0.597 17.302,-0.895C15.87,-0.955 14.438,-0.955 12.768,-0.955L0,-0.955L0,41.704ZM9.785,7.339L14.558,7.339C19.868,7.339 22.194,9.069 22.194,12.887C22.194,16.765 19.51,18.495 14.737,18.495L9.785,18.495L9.785,7.339ZM44.388,-0.955L35.081,-0.955L35.081,41.704L44.388,41.704L44.388,-0.955ZM70.401,32.397C69.267,34.604 67.298,35.678 64.435,35.678C60.318,35.678 57.454,32.934 57.036,28.22L80.305,28.22L80.305,27.683C80.305,27.385 80.364,26.967 80.364,26.669C80.364,16.407 74.756,9.307 64.315,9.307C54.531,9.307 47.789,16.169 47.789,25.953C47.789,36.215 54.173,42.659 64.136,42.659C72.549,42.659 77.978,38.542 79.887,32.397L70.401,32.397ZM57.275,22.433C57.812,18.316 60.437,15.93 64.256,15.93C68.134,15.93 70.52,18.316 70.997,22.433L57.275,22.433ZM100.589,9.307C90.566,9.307 83.764,16.169 83.764,26.013C83.764,35.857 90.327,42.659 100.649,42.659C110.911,42.659 117.533,35.857 117.533,26.072C117.533,16.169 110.732,9.307 100.589,9.307M100.53,16.646C105.303,16.646 107.749,20.405 107.749,26.072C107.749,31.8 105.362,35.32 100.589,35.32C95.816,35.32 93.37,31.8 93.37,26.013C93.37,20.345 95.936,16.646 100.53,16.646" style="fill:rgb(39,40,146);fill-rule:nonzero;"/>
        </g>
    </g>
</svg>
