<?xml version="1.0" encoding="UTF-8" standalone="no"?><!DOCTYPE svg PUBLIC "-//W3C//DTD SVG 1.1//EN" "http://www.w3.org/Graphics/SVG/1.1/DTD/svg11.dtd"><svg width="100%" height="100%" viewBox="0 0 334 275" version="1.1" xmlns="http://www.w3.org/2000/svg" xmlns:xlink="http://www.w3.org/1999/xlink" xml:space="preserve" xmlns:serif="http://www.serif.com/" style="fill-rule:evenodd;clip-rule:evenodd;stroke-linecap:round;stroke-linejoin:round;stroke-miterlimit:1.5;"><g id="big"><circle cx="54.167" cy="56.25" r="45.833" style="fill:none;stroke:#000;stroke-width:16.67px;"/><circle cx="279.167" cy="56.25" r="45.833" style="fill:none;stroke:#000;stroke-width:16.67px;"/><circle cx="166.667" cy="220.833" r="45.833" style="fill:none;stroke:#000;stroke-width:16.67px;"/></g><g id="small-top" serif:id="small top"><circle cx="129.63" cy="56.25" r="12.963"/><circle cx="166.667" cy="56.25" r="12.963"/><circle cx="203.704" cy="56.25" r="12.963"/></g><g id="small-left" serif:id="small left"><path d="M109.374,118.685c3.577,6.196 1.451,14.13 -4.745,17.707c-6.196,3.578 -14.13,1.452 -17.707,-4.744c-3.578,-6.196 -1.451,-14.131 4.744,-17.708c6.196,-3.577 14.131,-1.451 17.708,4.745Z"/><path d="M127.893,150.76c3.577,6.196 1.451,14.13 -4.745,17.707c-6.196,3.578 -14.131,1.452 -17.708,-4.744c-3.577,-6.196 -1.451,-14.131 4.745,-17.708c6.196,-3.577 14.131,-1.451 17.708,4.745Z"/></g><g id="small-right" serif:id="small right"><path d="M244.559,131.648c-3.577,6.196 -11.511,8.322 -17.707,4.744c-6.196,-3.577 -8.322,-11.511 -4.745,-17.707c3.577,-6.196 11.512,-8.322 17.708,-4.745c6.196,3.577 8.322,11.512 4.744,17.708Z"/><path d="M226.041,163.723c-3.577,6.196 -11.512,8.322 -17.708,4.744c-6.196,-3.577 -8.322,-11.511 -4.745,-17.707c3.578,-6.196 11.512,-8.322 17.708,-4.745c6.196,3.577 8.322,11.512 4.745,17.708Z"/></g></svg>